<?xml version="1.0" encoding="utf-8"?>
<svg version="1.1" viewBox="0 0 94.403 94.403" xmlns="http://www.w3.org/2000/svg" xmlns:bx="https://boxy-svg.com">
  <defs>
    <bx:export>
      <bx:file format="webp" width="600" height="600"/>
      <bx:file format="png" dpi="400" width="600" height="600"/>
    </bx:export>
    <linearGradient gradientUnits="userSpaceOnUse" x1="46.027" y1="14" x2="46.027" y2="74.959" id="gradient-0">
      <stop offset="0" style="stop-color: #bada55"/>
      <stop offset="1" style="stop-color: #758d29"/>
    </linearGradient>
    <linearGradient gradientUnits="userSpaceOnUse" x1="46.027" y1="14" x2="46.027" y2="74.959" id="gradient-1">
      <stop offset="0" style="stop-color: rgb(227, 210, 95)"/>
      <stop offset="1" style="stop-color: rgb(51.687% 47.347% 0%)"/>
    </linearGradient>
  </defs>
  <path id="yo" d="M 26.422 53.29 C 26.422 49.586 26.978 46.358 28.089 43.606 C 29.253 40.802 30.761 38.473 32.613 36.621 C 34.465 34.769 36.582 33.367 38.963 32.414 C 41.397 31.462 43.885 30.986 46.425 30.986 C 52.351 30.986 57.034 32.811 60.474 36.462 C 63.913 40.061 65.633 45.379 65.633 52.416 C 65.633 53.104 65.606 53.872 65.554 54.718 C 65.501 55.512 65.448 56.226 65.395 56.861 L 38.566 56.861 C 38.83 59.296 39.968 61.227 41.979 62.656 C 43.99 64.085 46.688 64.799 50.075 64.799 C 52.245 64.799 54.361 64.614 56.425 64.243 C 58.542 63.82 60.262 63.317 61.584 62.735 L 63.172 72.34 C 62.537 72.657 61.69 72.975 60.632 73.292 C 59.574 73.61 58.383 73.874 57.06 74.086 C 55.79 74.35 54.414 74.562 52.933 74.721 C 51.451 74.88 49.969 74.959 48.488 74.959 C 44.73 74.959 41.45 74.403 38.645 73.292 C 35.893 72.181 33.592 70.673 31.739 68.768 C 29.94 66.81 28.591 64.508 27.691 61.862 C 26.845 59.216 26.421 56.359 26.421 53.29 L 26.422 53.29 Z M 54.203 48.766 C 54.15 47.76 53.965 46.781 53.647 45.829 C 53.383 44.876 52.933 44.03 52.298 43.289 C 51.716 42.548 50.949 41.939 49.996 41.463 C 49.096 40.987 47.959 40.749 46.583 40.749 C 45.26 40.749 44.122 40.987 43.17 41.463 C 42.217 41.886 41.424 42.469 40.789 43.209 C 40.154 43.95 39.651 44.823 39.281 45.829 C 38.963 46.781 38.725 47.76 38.566 48.766 L 54.203 48.766 Z M 37.614 26.065 C 35.974 26.065 34.545 25.535 33.328 24.477 C 32.111 23.366 31.502 21.884 31.502 20.032 C 31.502 18.18 32.111 16.725 33.328 15.666 C 34.545 14.555 35.974 14 37.614 14 C 39.254 14 40.683 14.555 41.9 15.666 C 43.117 16.725 43.726 18.18 43.726 20.032 C 43.726 21.884 43.117 23.366 41.9 24.477 C 40.683 25.535 39.254 26.065 37.614 26.065 Z M 55.315 26.065 C 53.675 26.065 52.246 25.535 51.029 24.477 C 49.812 23.366 49.203 21.884 49.203 20.032 C 49.203 18.18 49.812 16.725 51.029 15.666 C 52.246 14.555 53.675 14 55.315 14 C 56.955 14 58.384 14.555 59.601 15.666 C 60.818 16.725 61.427 18.18 61.427 20.032 C 61.427 21.884 60.818 23.366 59.601 24.477 C 58.384 25.535 56.955 26.065 55.315 26.065 Z" style="stroke: url(&quot;#gradient-0&quot;); stroke-width: 0px; paint-order: stroke; fill: url(&quot;#gradient-1&quot;);"/>
  <path id="radio" d="M 89.864 33.39 C 89.613 33.397 89.334 33.455 89.027 33.561 C 88.067 33.892 86.981 34.535 85.767 35.491 C 84.553 36.418 83.326 37.688 82.084 39.303 C 81.83 39.645 81.562 40.006 81.279 40.385 C 80.997 40.765 80.729 41.126 80.475 41.468 C 80.221 41.809 80.01 42.108 79.84 42.364 C 79.737 42.544 79.673 42.672 79.645 42.75 C 79.638 42.76 79.635 42.765 79.628 42.776 C 79.459 43.004 79.191 43.379 78.824 43.9 C 78.486 44.384 78.006 45.058 77.385 45.922 C 76.397 47.307 75.564 48.343 74.887 49.028 C 74.21 49.714 73.716 50.11 73.406 50.217 C 72.926 50.383 72.686 50.225 72.686 49.746 C 72.686 49.436 72.813 48.969 73.067 48.345 C 73.349 47.683 73.688 46.959 74.083 46.173 C 74.506 45.35 74.958 44.488 75.437 43.589 C 75.945 42.68 76.44 41.803 76.92 40.96 C 77.399 40.117 77.822 39.35 78.189 38.659 C 78.584 37.958 78.881 37.404 79.078 36.997 L 76.369 38.102 C 75.72 39.456 74.901 40.952 73.914 42.592 C 72.954 44.221 71.966 45.762 70.95 47.213 C 69.934 48.665 68.961 49.918 68.029 50.974 C 67.126 52.02 66.406 52.636 65.87 52.821 C 65.701 52.879 65.532 52.881 65.362 52.827 C 65.221 52.763 65.151 52.604 65.151 52.35 C 65.151 51.927 65.221 51.507 65.362 51.092 C 65.532 50.666 65.828 50.041 66.252 49.218 C 66.703 48.356 67.324 47.196 68.114 45.738 C 68.932 44.242 69.991 42.225 71.289 39.688 L 68.919 40.677 C 68.185 41.523 67.535 42.311 66.971 43.042 C 66.435 43.764 65.955 44.424 65.532 45.022 C 65.052 45.695 64.657 46.241 64.346 46.659 C 64.064 47.038 63.852 47.337 63.711 47.555 C 63.57 47.773 63.471 47.934 63.415 48.038 C 63.394 48.087 63.381 48.125 63.376 48.153 C 63.268 48.325 63.099 48.587 62.822 49.005 C 62.371 49.697 61.863 50.423 61.298 51.183 C 60.762 51.933 60.197 52.664 59.605 53.377 C 59.012 54.089 58.406 54.764 57.785 55.402 C 57.164 56.012 56.557 56.546 55.964 57.005 L 55.88 56.949 L 62.992 42.724 L 60.24 43.887 C 59.958 44.577 59.662 45.258 59.351 45.929 C 59.041 46.573 58.744 47.169 58.462 47.718 L 58.378 47.663 C 58.491 47.257 58.547 46.744 58.547 46.123 C 58.547 45.389 58.349 44.935 57.954 44.761 C 57.559 44.587 57.022 44.617 56.345 44.851 C 55.724 45.065 55.047 45.427 54.313 45.934 C 53.579 46.441 52.846 47.02 52.112 47.668 C 51.378 48.317 50.673 49.012 49.995 49.754 C 49.346 50.458 48.782 51.147 48.302 51.82 C 47.71 52.674 47.328 53.229 47.159 53.485 C 47.144 53.509 47.133 53.527 47.12 53.548 C 47.076 53.579 47.033 53.633 46.99 53.713 C 46.933 53.789 46.778 54.026 46.524 54.424 C 45.282 56.293 44.125 57.906 43.053 59.264 C 42.009 60.585 41.162 61.357 40.513 61.581 C 40.033 61.747 39.793 61.633 39.793 61.237 C 39.793 60.983 39.906 60.549 40.132 59.935 C 40.386 59.311 40.71 58.578 41.105 57.736 C 41.5 56.894 41.924 56.014 42.375 55.096 C 42.855 54.168 43.321 53.287 43.772 52.454 C 44.224 51.592 44.633 50.83 45 50.167 C 45.395 49.466 45.691 48.969 45.889 48.675 L 43.857 49.462 C 43.631 49.54 43.448 49.659 43.307 49.821 C 43.194 49.945 43.067 50.144 42.926 50.418 C 42.785 50.665 42.601 51.024 42.375 51.497 C 42.178 51.961 41.895 52.552 41.528 53.271 L 41.444 53.216 C 41.529 52.933 41.571 52.537 41.571 52.029 C 41.571 51.465 41.43 51.034 41.148 50.736 C 40.865 50.41 40.4 50.359 39.751 50.584 C 39.017 50.837 38.255 51.228 37.465 51.755 C 36.703 52.272 35.94 52.888 35.178 53.603 C 34.445 54.308 33.725 55.078 33.02 55.915 C 32.314 56.751 31.679 57.62 31.115 58.52 C 30.832 58.956 30.649 59.232 30.564 59.345 C 30.48 59.459 30.437 59.558 30.437 59.643 C 30.437 59.784 30.494 59.836 30.607 59.797 C 30.663 59.777 30.706 59.748 30.734 59.71 C 30.762 59.644 30.804 59.601 30.861 59.582 C 30.804 59.94 30.748 60.298 30.691 60.656 C 30.663 60.976 30.649 61.306 30.649 61.645 C 30.649 62.124 30.677 62.594 30.734 63.054 C 30.818 63.477 30.959 63.837 31.157 64.136 C 31.355 64.406 31.623 64.596 31.962 64.705 C 32.328 64.804 32.78 64.761 33.316 64.576 C 33.711 64.439 34.148 64.161 34.628 63.741 C 35.108 63.293 35.588 62.803 36.068 62.27 C 36.548 61.71 36.999 61.144 37.422 60.574 C 37.874 59.995 38.255 59.497 38.565 59.079 C 38.565 59.192 38.551 59.324 38.523 59.475 L 38.523 59.856 C 38.523 61.013 38.692 61.73 39.031 62.008 C 39.37 62.286 39.821 62.328 40.386 62.133 C 40.95 61.938 41.628 61.408 42.418 60.542 C 43.208 59.648 44.097 58.522 45.085 57.165 C 45.339 56.823 45.592 56.454 45.846 56.056 C 46.129 55.648 46.383 55.278 46.609 54.946 C 46.835 54.614 47.018 54.339 47.159 54.12 C 47.276 53.944 47.349 53.825 47.385 53.757 C 47.438 53.704 47.503 53.663 47.582 53.636 C 47.695 53.597 47.752 53.619 47.752 53.704 C 47.752 54.014 47.695 54.345 47.582 54.694 C 47.498 55.034 47.455 55.471 47.455 56.008 C 47.455 57.108 47.639 57.934 48.006 58.484 C 48.401 59.025 49.092 59.125 50.08 58.784 C 50.672 58.579 51.28 58.186 51.9 57.605 C 52.521 57.024 53.114 56.381 53.678 55.678 C 54.271 54.937 54.807 54.202 55.287 53.471 C 55.767 52.713 56.162 52.069 56.472 51.538 L 56.557 51.593 C 55.767 53.39 55.146 54.818 54.695 55.877 C 54.271 56.927 53.904 57.858 53.594 58.671 C 51.816 60.301 50.236 61.764 48.853 63.06 C 47.47 64.385 46.298 65.608 45.339 66.729 C 44.379 67.851 43.645 68.881 43.137 69.818 C 42.629 70.756 42.376 71.648 42.376 72.494 C 42.376 73.228 42.573 73.696 42.968 73.898 C 43.363 74.129 43.871 74.137 44.492 73.922 C 45.141 73.698 45.833 73.219 46.566 72.486 C 47.3 71.781 48.034 70.935 48.768 69.948 C 49.502 68.96 50.221 67.893 50.927 66.746 C 51.661 65.59 52.324 64.443 52.916 63.307 C 53.537 62.19 54.073 61.143 54.525 60.169 C 55.005 59.185 55.372 58.381 55.626 57.757 C 56.501 57.144 57.559 56.172 58.801 54.84 C 60.043 53.479 61.228 51.969 62.357 50.309 C 62.977 49.417 63.387 48.824 63.584 48.53 C 63.749 48.285 63.844 48.104 63.871 47.985 C 63.959 47.849 64.086 47.661 64.261 47.407 C 64.91 46.506 65.56 45.59 66.209 44.66 C 66.886 43.721 67.535 42.904 68.156 42.21 L 68.241 42.265 C 67.846 42.994 67.394 43.757 66.886 44.553 C 66.378 45.321 65.898 46.108 65.447 46.913 C 64.995 47.69 64.614 48.499 64.304 49.34 C 64.021 50.143 63.88 50.94 63.88 51.73 C 63.88 52.379 64.036 52.876 64.346 53.22 C 64.656 53.536 65.15 53.577 65.828 53.343 C 66.307 53.178 66.816 52.833 67.352 52.309 C 67.917 51.775 68.466 51.19 69.003 50.553 C 69.539 49.888 70.033 49.238 70.485 48.602 C 70.936 47.938 71.317 47.383 71.628 46.937 L 71.712 46.992 C 71.515 47.597 71.416 48.167 71.416 48.703 C 71.416 48.957 71.43 49.235 71.458 49.535 C 71.515 49.826 71.599 50.094 71.712 50.337 C 71.853 50.57 72.037 50.746 72.262 50.866 C 72.516 50.948 72.827 50.925 73.194 50.798 C 73.759 50.603 74.393 50.13 75.099 49.378 C 75.833 48.588 76.736 47.458 77.808 45.987 C 78.034 45.655 78.288 45.285 78.57 44.877 C 78.881 44.459 79.163 44.066 79.417 43.696 C 79.671 43.326 79.883 43.013 80.052 42.757 C 80.217 42.48 80.3 42.325 80.305 42.291 C 80.411 42.141 80.524 42.043 80.644 42.002 C 80.729 41.973 80.771 42.042 80.771 42.212 C 80.771 42.353 80.729 42.579 80.644 42.891 C 80.588 43.192 80.56 43.724 80.56 44.487 C 80.56 45.644 80.786 46.483 81.237 47.004 C 81.689 47.526 82.338 47.64 83.185 47.347 C 84.37 46.938 85.4 46.272 86.275 45.349 C 87.178 44.387 87.954 43.428 88.603 42.47 C 88.688 42.469 88.871 42.419 89.153 42.322 C 89.972 42.039 90.734 41.621 91.44 41.067 C 92.173 40.475 92.808 39.804 93.344 39.054 C 93.824 38.38 94.121 37.953 94.234 37.773 C 94.347 37.593 94.403 37.475 94.403 37.418 C 94.403 37.277 94.333 37.231 94.191 37.279 C 94.135 37.299 94.064 37.366 93.979 37.48 C 93.923 37.584 93.754 37.84 93.472 38.248 C 92.935 39.054 92.329 39.771 91.652 40.4 C 90.974 41.001 90.269 41.429 89.535 41.682 C 89.337 41.75 89.182 41.776 89.069 41.759 C 89.379 41.341 89.676 40.871 89.958 40.35 C 90.268 39.792 90.536 39.247 90.762 38.718 C 91.016 38.15 91.214 37.603 91.355 37.074 C 91.496 36.517 91.567 36.027 91.567 35.604 C 91.567 34.757 91.341 34.144 90.889 33.764 C 90.625 33.502 90.283 33.378 89.864 33.39 Z M 89.691 33.922 C 89.954 33.924 90.155 34.024 90.297 34.222 C 90.522 34.511 90.635 34.91 90.635 35.418 C 90.635 36.377 90.41 37.457 89.958 38.657 C 89.507 39.858 88.928 41.017 88.222 42.135 C 87.545 43.216 86.769 44.19 85.894 45.056 C 85.047 45.913 84.201 46.488 83.354 46.78 C 83.043 46.888 82.776 46.868 82.55 46.72 C 82.352 46.562 82.253 46.187 82.253 45.594 C 82.253 44.719 82.465 43.673 82.888 42.454 C 83.34 41.226 83.904 40.029 84.582 38.863 C 85.259 37.698 86.007 36.663 86.825 35.76 C 87.644 34.856 88.42 34.278 89.153 34.024 C 89.355 33.955 89.534 33.92 89.691 33.922 Z M 34.448 34.903 C 34.427 34.901 34.403 34.906 34.375 34.915 C 34.149 34.993 33.81 35.279 33.359 35.774 C 32.907 36.24 32.385 36.745 31.792 37.288 C 30.861 37.159 29.718 37.201 28.363 37.415 C 27.008 37.6 25.583 37.951 24.087 38.468 C 23.128 38.8 22.14 39.198 21.124 39.661 C 20.136 40.087 19.247 40.535 18.457 41.006 C 17.921 40.74 17.131 40.603 16.087 40.597 C 15.071 40.581 14.027 40.759 12.954 41.13 C 11.458 41.646 10.089 42.345 8.848 43.226 C 7.634 44.096 6.547 45.05 5.588 46.087 C 4.628 47.096 3.796 48.131 3.09 49.194 C 2.413 50.246 1.834 51.236 1.354 52.164 C 0.903 53.054 0.564 53.834 0.338 54.504 C 0.113 55.147 0 55.553 0 55.722 C 0 55.751 0.014 55.788 0.042 55.835 C 0.071 55.881 0.113 55.895 0.17 55.875 C 0.254 55.846 0.367 55.637 0.508 55.25 C 0.649 54.863 0.861 54.352 1.143 53.718 C 1.425 53.056 1.806 52.276 2.286 51.376 C 2.766 50.477 3.387 49.514 4.149 48.489 C 5.362 46.856 6.717 45.457 8.212 44.291 C 9.708 43.097 11.261 42.222 12.869 41.666 C 13.688 41.384 14.549 41.199 15.452 41.113 C 16.355 41.027 17.145 41.107 17.822 41.353 C 16.891 41.872 15.889 42.542 14.817 43.364 C 13.744 44.186 12.672 45.122 11.599 46.169 C 10.527 47.189 9.497 48.292 8.509 49.48 C 7.549 50.659 6.689 51.859 5.927 53.082 C 5.193 54.267 4.6 55.459 4.148 56.66 C 3.697 57.86 3.471 58.996 3.471 60.068 C 3.471 60.859 3.598 61.506 3.852 62.011 C 4.106 62.488 4.445 62.851 4.868 63.1 C 5.292 63.32 5.786 63.432 6.35 63.434 C 6.914 63.437 7.507 63.331 8.128 63.117 C 9.709 62.571 11.247 61.658 12.742 60.379 C 14.238 59.072 15.564 57.598 16.721 55.957 C 17.879 54.287 18.81 52.568 19.516 50.801 C 20.221 49.005 20.574 47.345 20.574 45.821 C 20.574 44.889 20.447 44.03 20.193 43.243 C 19.967 42.418 19.53 41.751 18.88 41.241 C 19.699 40.761 20.518 40.351 21.336 40.012 C 22.183 39.663 23.1 39.317 24.087 38.976 C 25.16 38.605 26.303 38.31 27.517 38.088 C 28.758 37.857 29.972 37.818 31.157 37.973 C 30.141 38.974 29.125 40.115 28.109 41.397 C 27.122 42.67 26.176 43.998 25.273 45.382 C 24.398 46.757 23.58 48.14 22.818 49.532 C 22.056 50.925 21.393 52.24 20.828 53.479 C 20.32 54.586 19.77 55.792 19.177 57.098 C 18.613 58.394 17.992 59.723 17.314 61.086 C 16.637 62.42 15.889 63.765 15.07 65.121 C 14.28 66.438 13.405 67.671 12.446 68.821 C 11.514 69.961 10.499 70.976 9.398 71.864 C 8.326 72.714 7.169 73.354 5.927 73.783 C 4.939 74.124 4.234 74.212 3.81 74.048 C 3.415 73.846 3.217 73.52 3.217 73.068 C 3.217 72.842 3.288 72.62 3.429 72.402 C 3.57 72.156 3.641 71.835 3.641 71.44 C 3.641 70.96 3.471 70.637 3.133 70.472 C 2.794 70.279 2.385 70.265 1.905 70.431 C 1.397 70.606 1.002 70.926 0.72 71.391 C 0.466 71.817 0.339 72.27 0.339 72.75 C 0.339 73.371 0.466 73.863 0.72 74.227 C 1.002 74.553 1.369 74.779 1.821 74.905 C 2.3 75.022 2.837 75.034 3.429 74.942 C 4.05 74.869 4.685 74.72 5.334 74.496 C 6.971 73.93 8.566 73.041 10.118 71.827 C 11.698 70.576 13.194 69.141 14.605 67.525 C 16.044 65.871 17.371 64.086 18.585 62.171 C 19.826 60.218 20.913 58.248 21.844 56.261 C 22.776 54.303 23.65 52.434 24.469 50.656 C 25.287 48.849 26.077 47.179 26.839 45.646 C 27.601 44.084 28.378 42.673 29.168 41.413 C 29.958 40.124 30.805 39.012 31.708 38.079 C 32.667 38.312 33.373 38.788 33.824 39.507 C 34.304 40.216 34.544 41.108 34.544 42.18 C 34.544 43.111 34.375 44.143 34.036 45.276 C 33.726 46.4 33.26 47.477 32.639 48.51 C 32.046 49.533 31.312 50.464 30.438 51.303 C 29.591 52.132 28.646 52.726 27.602 53.087 C 27.235 53.214 26.896 53.274 26.586 53.269 C 26.303 53.253 26.049 53.214 25.823 53.151 C 25.598 53.088 25.4 53.029 25.231 52.975 C 25.089 52.911 25.005 52.883 24.977 52.893 C 24.807 52.952 24.723 53.052 24.723 53.193 C 24.723 53.277 24.822 53.37 25.019 53.471 C 25.245 53.563 25.513 53.639 25.823 53.701 C 26.162 53.754 26.529 53.782 26.924 53.787 C 27.347 53.782 27.757 53.711 28.152 53.574 C 29.14 53.233 30.141 52.689 31.157 51.943 C 32.201 51.187 33.133 50.329 33.951 49.369 C 34.798 48.371 35.489 47.314 36.026 46.197 C 36.562 45.081 36.83 43.986 36.83 42.914 C 36.83 41.362 36.407 40.125 35.56 39.204 C 34.742 38.245 33.669 37.628 32.343 37.352 C 32.907 36.762 33.415 36.276 33.867 35.895 C 34.318 35.485 34.544 35.209 34.544 35.068 C 34.544 34.962 34.512 34.907 34.448 34.902 L 34.448 34.903 Z M 18.287 41.572 C 18.739 41.896 19.021 42.377 19.134 43.016 C 19.247 43.654 19.303 44.354 19.303 45.116 C 19.303 46.584 18.951 48.23 18.245 50.054 C 17.54 51.878 16.623 53.648 15.494 55.365 C 14.393 57.043 13.151 58.559 11.768 59.911 C 10.385 61.236 9.003 62.137 7.62 62.615 C 6.519 62.995 5.63 62.949 4.953 62.478 C 4.304 61.968 3.979 61.05 3.979 59.724 C 3.979 58.426 4.402 56.925 5.249 55.221 C 6.096 53.518 7.196 51.811 8.551 50.101 C 9.906 48.391 11.429 46.778 13.123 45.262 C 14.844 43.736 16.566 42.506 18.287 41.572 Z M 57.268 45.099 C 57.507 45.083 57.679 45.145 57.785 45.284 C 57.954 45.508 58.038 45.86 58.038 46.34 C 58.038 46.735 57.912 47.287 57.658 47.995 C 57.404 48.676 57.065 49.428 56.642 50.251 C 56.246 51.065 55.781 51.903 55.245 52.766 C 54.708 53.629 54.144 54.444 53.551 55.213 C 52.959 55.954 52.352 56.616 51.731 57.197 C 51.138 57.741 50.588 58.1 50.08 58.275 C 49.713 58.402 49.431 58.373 49.233 58.187 C 49.064 57.991 48.979 57.711 48.979 57.344 C 48.979 56.553 49.219 55.539 49.699 54.301 C 50.207 53.025 50.842 51.761 51.604 50.51 C 52.366 49.259 53.198 48.139 54.102 47.149 C 55.033 46.15 55.922 45.505 56.769 45.212 C 56.959 45.146 57.125 45.109 57.268 45.099 Z M 40.204 51 C 40.427 50.996 40.6 51.069 40.724 51.22 C 40.95 51.425 41.062 51.739 41.062 52.162 C 41.062 52.952 40.766 53.986 40.173 55.263 C 39.609 56.502 38.918 57.743 38.099 58.985 C 37.281 60.228 36.434 61.338 35.559 62.318 C 34.684 63.269 33.936 63.852 33.315 64.067 C 32.977 64.184 32.722 64.145 32.553 63.949 C 32.412 63.744 32.342 63.444 32.342 63.049 C 32.342 62.287 32.568 61.291 33.019 60.063 C 33.471 58.834 34.049 57.605 34.755 56.373 C 35.46 55.142 36.251 54.036 37.125 53.056 C 38.029 52.039 38.903 51.384 39.75 51.091 C 39.919 51.033 40.071 51.002 40.204 51 Z M 53.254 59.465 C 53.113 59.937 52.874 60.584 52.535 61.407 C 52.225 62.22 51.829 63.104 51.35 64.06 C 50.898 65.034 50.39 66.028 49.826 67.042 C 49.289 68.074 48.725 69.017 48.132 69.87 C 47.54 70.753 46.947 71.507 46.354 72.135 C 45.79 72.754 45.239 73.156 44.703 73.341 C 44.139 73.536 43.786 73.503 43.645 73.241 C 43.532 72.998 43.476 72.636 43.476 72.156 C 43.476 71.168 43.857 70.078 44.619 68.883 C 45.381 67.688 46.283 66.501 47.328 65.322 C 48.372 64.143 49.444 63.039 50.545 62.009 C 51.646 60.98 52.549 60.132 53.254 59.465 Z" style="fill: rgb(255, 0, 0);"/>
</svg>